<svg width="25" height="25" viewBox="0 0 25 25" fill="none" xmlns="http://www.w3.org/2000/svg">
<path d="M22.7779 23.8545C22.7779 20.2908 19.1946 17.3998 14.7781 17.3998H10.2224C5.8054 17.3998 2.22214 20.2921 2.22214 23.8545C2.22508 24.0038 2.19852 24.1522 2.14401 24.291C2.0895 24.4298 2.00814 24.5562 1.90468 24.6628C1.80123 24.7694 1.67777 24.8541 1.54151 24.9119C1.40526 24.9698 1.25896 24.9996 1.11118 24.9996C0.963396 24.9996 0.817097 24.9698 0.680845 24.9119C0.544594 24.8541 0.421128 24.7694 0.317675 24.6628C0.214221 24.5562 0.132858 24.4298 0.0783488 24.291C0.0238393 24.1522 -0.0027218 24.0038 0.000220226 23.8545C0.000220226 19.056 4.58367 15.1549 10.2224 15.1549H14.7781C20.4154 15.1549 24.9998 19.056 24.9998 23.855C25.0027 24.0043 24.9762 24.1526 24.9217 24.2914C24.8671 24.4302 24.7858 24.5566 24.6823 24.6632C24.5789 24.7699 24.4554 24.8546 24.3192 24.9124C24.1829 24.9702 24.0366 25 23.8888 25C23.741 25 23.5947 24.9702 23.4585 24.9124C23.3222 24.8546 23.1988 24.7699 23.0953 24.6632C22.9919 24.5566 22.9105 24.4302 22.856 24.2914C22.8015 24.1526 22.7749 24.0038 22.7779 23.8545ZM5.83314 6.73555C5.83314 5.40341 6.22412 4.10117 6.95664 2.99353C7.68916 1.88588 8.73032 1.02257 9.94847 0.512759C11.1666 0.00294792 12.507 -0.130464 13.8002 0.129392C15.0934 0.389249 16.2813 1.0307 17.2136 1.97264C18.146 2.91458 18.781 4.1147 19.0383 5.42124C19.2955 6.72778 19.1636 8.08206 18.6591 9.31283C18.1546 10.5436 17.3001 11.5956 16.2039 12.3357C15.1076 13.0759 13.8187 13.471 12.5002 13.4711C11.6241 13.4733 10.7562 13.3006 9.94633 12.9629C9.13648 12.6252 8.40065 12.1292 7.78112 11.5033C7.16159 10.8774 6.67057 10.134 6.33627 9.31581C6.00198 8.4976 5.83099 7.62073 5.83314 6.73555ZM8.0555 6.73555C8.05559 7.6236 8.3163 8.49167 8.80468 9.23002C9.29306 9.96836 9.98716 10.5438 10.7992 10.8836C11.6113 11.2234 12.5049 11.3123 13.3669 11.139C14.229 10.9658 15.0208 10.5381 15.6424 9.91017C16.2639 9.28223 16.6871 8.48219 16.8586 7.61122C17.0301 6.74024 16.9422 5.83744 16.6058 5.01698C16.2695 4.19652 15.7 3.49524 14.9692 3.00181C14.2384 2.50839 13.3792 2.24498 12.5002 2.24489C11.3225 2.2483 10.194 2.72252 9.36121 3.56396C8.52846 4.4054 8.05876 5.54564 8.0555 6.73555Z" fill="#7A7A7A"/>
</svg>
