<svg width="27" height="27" viewBox="0 0 27 27" fill="none" xmlns="http://www.w3.org/2000/svg">
<path d="M24.7943 9.96688L16.3216 2.06704C15.9648 1.71773 15.5342 1.44247 15.0575 1.25894C14.5808 1.07541 14.0684 0.987681 13.5535 1.00139C12.5127 1.00877 11.5177 1.40444 10.7873 2.10136L1.95735 10.5338C1.8901 10.594 1.83656 10.6663 1.79997 10.7466C1.76339 10.8268 1.74453 10.9131 1.74453 11.0004C1.74453 11.0877 1.76339 11.174 1.79997 11.2542C1.83656 11.3345 1.8901 11.4068 1.95735 11.467L1.99282 11.5004C2.05684 11.5636 2.13385 11.6139 2.21918 11.6483C2.30451 11.6827 2.39639 11.7004 2.48923 11.7004C2.58208 11.7004 2.67395 11.6827 2.75929 11.6483C2.84462 11.6139 2.92163 11.5636 2.98564 11.5004L11.8156 3.06697C12.2574 2.64428 12.8528 2.39428 13.4825 2.36717H13.5535C14.1896 2.38147 14.797 2.61924 15.2558 3.03362L23.766 10.9335C24.2316 11.3657 24.4987 11.952 24.5105 12.567V21.6335C24.5086 22.4197 24.1755 23.1732 23.5841 23.7291C22.9926 24.285 22.1911 24.5981 21.3547 24.5999H5.60986C4.76426 24.5975 3.95403 24.2807 3.3561 23.7186C2.75817 23.1566 2.42111 22.395 2.41854 21.6001V15.6001C2.41799 15.4235 2.34312 15.2543 2.21027 15.1294C2.07743 15.0045 1.8974 14.9342 1.70953 14.9336C1.52156 14.934 1.34141 15.0043 1.20845 15.1292C1.07549 15.2541 1.00054 15.4234 1 15.6001V21.6335C1.0042 22.7903 1.49497 23.8987 2.36523 24.7167C3.23549 25.5347 4.41461 25.996 5.64534 26H21.3901C21.9958 26.0011 22.5958 25.8898 23.1557 25.6725C23.7155 25.4551 24.2242 25.136 24.6525 24.7334C25.0808 24.3308 25.4203 23.8526 25.6516 23.3264C25.8828 22.8002 26.0012 22.2362 26 21.6668V12.567C25.9696 11.5866 25.5376 10.6552 24.7943 9.96688Z" fill="#7A7A7A" stroke="#7A7A7A" stroke-width="0.5"/>
</svg>
