<svg width="32" height="33" viewBox="0 0 32 33" fill="none" xmlns="http://www.w3.org/2000/svg">
<path d="M22.5617 24.75C22.6326 24.9494 22.6683 25.1634 22.6667 25.3792C22.6667 27.3019 19.9817 28.875 16.6667 28.875C13.3518 28.875 10.6668 27.3019 10.6668 25.3792C10.6652 25.1634 10.7009 24.9494 10.7718 24.75" stroke="#7A7A7A" stroke-width="2" stroke-linecap="round" stroke-linejoin="round"/>
<path d="M24.2759 9.99755C24.2759 7.94964 23.4621 5.9856 22.0136 4.53751C20.565 3.08941 18.6003 2.27588 16.5518 2.27588C14.5032 2.27588 12.5385 3.08941 11.09 4.53751C9.64143 5.9856 8.82764 7.94964 8.82764 9.99755C8.82764 16.1749 16.5518 23.8966 16.5518 23.8966C16.5518 23.8966 24.2759 16.1749 24.2759 9.99755Z" stroke="#7A7A7A" stroke-width="2" stroke-linecap="round" stroke-linejoin="round"/>
<ellipse cx="16.6667" cy="11.6875" rx="2" ry="2.0625" fill="#7A7A7A"/>
</svg>
