<svg width="25" height="25" viewBox="0 0 25 25" fill="none" xmlns="http://www.w3.org/2000/svg">
<path d="M22.9167 1.92308H19.7917V0.961538C19.7917 0.706523 19.6819 0.461951 19.4866 0.281628C19.2912 0.101305 19.0263 0 18.75 0C18.4737 0 18.2088 0.101305 18.0134 0.281628C17.8181 0.461951 17.7083 0.706523 17.7083 0.961538V1.92308H7.29167V0.961538C7.29167 0.706523 7.18192 0.461951 6.98657 0.281628C6.79122 0.101305 6.52627 0 6.25 0C5.97373 0 5.70878 0.101305 5.51343 0.281628C5.31808 0.461951 5.20833 0.706523 5.20833 0.961538V1.92308H2.08333C1.5308 1.92308 1.00089 2.12569 0.610194 2.48633C0.219493 2.84698 0 3.33612 0 3.84615V23.0769C0 23.587 0.219493 24.0761 0.610194 24.4367C1.00089 24.7974 1.5308 25 2.08333 25H22.9167C23.4692 25 23.9991 24.7974 24.3898 24.4367C24.7805 24.0761 25 23.587 25 23.0769V3.84615C25 3.33612 24.7805 2.84698 24.3898 2.48633C23.9991 2.12569 23.4692 1.92308 22.9167 1.92308ZM5.20833 3.84615V4.80769C5.20833 5.06271 5.31808 5.30728 5.51343 5.4876C5.70878 5.66793 5.97373 5.76923 6.25 5.76923C6.52627 5.76923 6.79122 5.66793 6.98657 5.4876C7.18192 5.30728 7.29167 5.06271 7.29167 4.80769V3.84615H17.7083V4.80769C17.7083 5.06271 17.8181 5.30728 18.0134 5.4876C18.2088 5.66793 18.4737 5.76923 18.75 5.76923C19.0263 5.76923 19.2912 5.66793 19.4866 5.4876C19.6819 5.30728 19.7917 5.06271 19.7917 4.80769V3.84615H22.9167V7.69231H2.08333V3.84615H5.20833ZM22.9167 23.0769H2.08333V9.61538H22.9167V23.0769Z" fill="#7A7A7A"/>
</svg>
