<svg width="20" height="18" viewBox="0 0 20 18" fill="none" xmlns="http://www.w3.org/2000/svg">
<path d="M18.3333 1.38462H15.8333V0.692308C15.8333 0.508696 15.7455 0.332605 15.5893 0.202772C15.433 0.0729393 15.221 0 15 0C14.779 0 14.567 0.0729393 14.4107 0.202772C14.2545 0.332605 14.1667 0.508696 14.1667 0.692308V1.38462H5.83333V0.692308C5.83333 0.508696 5.74554 0.332605 5.58926 0.202772C5.43297 0.0729393 5.22101 0 5 0C4.77899 0 4.56702 0.0729393 4.41074 0.202772C4.25446 0.332605 4.16667 0.508696 4.16667 0.692308V1.38462H1.66667C1.22464 1.38462 0.800716 1.53049 0.488155 1.79016C0.175595 2.04983 0 2.40201 0 2.76923V16.6154C0 16.9826 0.175595 17.3348 0.488155 17.5945C0.800716 17.8541 1.22464 18 1.66667 18H18.3333C18.7754 18 19.1993 17.8541 19.5118 17.5945C19.8244 17.3348 20 16.9826 20 16.6154V2.76923C20 2.40201 19.8244 2.04983 19.5118 1.79016C19.1993 1.53049 18.7754 1.38462 18.3333 1.38462ZM4.16667 2.76923V3.46154C4.16667 3.64515 4.25446 3.82124 4.41074 3.95107C4.56702 4.08091 4.77899 4.15385 5 4.15385C5.22101 4.15385 5.43297 4.08091 5.58926 3.95107C5.74554 3.82124 5.83333 3.64515 5.83333 3.46154V2.76923H14.1667V3.46154C14.1667 3.64515 14.2545 3.82124 14.4107 3.95107C14.567 4.08091 14.779 4.15385 15 4.15385C15.221 4.15385 15.433 4.08091 15.5893 3.95107C15.7455 3.82124 15.8333 3.64515 15.8333 3.46154V2.76923H18.3333V5.53846H1.66667V2.76923H4.16667ZM18.3333 16.6154H1.66667V6.92308H18.3333V16.6154Z" fill="#262626"/>
</svg>
