<svg width="25" height="21" viewBox="0 0 25 21" fill="none" xmlns="http://www.w3.org/2000/svg">
<path d="M11.6776 20.277C11.6344 20.4835 11.5348 20.6668 11.3945 20.7978C11.2542 20.9288 11.0813 21 10.9032 21C10.836 21.0004 10.7689 20.9908 10.7037 20.9714L7.5105 20.017C7.4216 19.9903 7.33721 19.9455 7.26103 19.8845L4.86616 17.9758C4.69004 17.8353 4.5678 17.6169 4.52635 17.3687C4.4849 17.1205 4.52763 16.8627 4.64513 16.6521C4.76264 16.4416 4.9453 16.2954 5.15292 16.2459C5.36055 16.1963 5.57614 16.2474 5.75226 16.3879L8.03139 18.2048L11.0908 19.1198C11.1931 19.1495 11.2894 19.203 11.3742 19.2772C11.4591 19.3515 11.5309 19.4451 11.5854 19.5526C11.6399 19.6602 11.6761 19.7795 11.692 19.9038C11.7078 20.0282 11.7029 20.155 11.6776 20.277ZM24.9182 8.76947C24.8527 9.00733 24.7485 9.22732 24.6115 9.41672C24.4744 9.60613 24.3074 9.7612 24.1199 9.87299L21.757 11.2855L16.2608 17.8577C16.1632 17.9742 16.0421 18.0585 15.9092 18.1024C15.7763 18.1463 15.6361 18.1483 15.5024 18.1082L9.11606 16.1994C9.01894 16.1703 8.92723 16.1197 8.84564 16.0503L3.3055 11.3213L0.882687 9.87299C0.504033 9.64668 0.216055 9.24986 0.0820739 8.76977C-0.0519072 8.28967 -0.020922 7.76562 0.168216 7.31283L2.64791 1.38487C2.8372 0.932178 3.16912 0.587888 3.57069 0.427708C3.97226 0.267528 4.4106 0.304572 4.78933 0.530694L6.99061 1.84298L12.2793 0.0367973C12.4228 -0.0122658 12.5749 -0.0122658 12.7184 0.0367973L18.007 1.84298L20.2083 0.530694C20.5871 0.304572 21.0254 0.267528 21.427 0.427708C21.8285 0.587888 22.1604 0.932178 22.3497 1.38487L24.8294 7.31283C24.924 7.53657 24.9806 7.7805 24.9958 8.03053C25.011 8.28055 24.9847 8.5317 24.9182 8.76947ZM20.3101 10.3132L17.5949 3.82096H14.4197L10.1049 8.83151C11.3682 9.79664 13.349 10.0627 15.1262 7.92126C15.265 7.754 15.4506 7.65403 15.6474 7.6406C15.8441 7.62716 16.0381 7.70121 16.1919 7.84849L19.6256 11.1376L20.3101 10.3132ZM1.59616 8.16582L3.36138 9.22161L5.84107 3.29366L4.07585 2.23786L1.59616 8.16582ZM18.487 12.4892L15.7219 9.84197C13.7721 11.7508 11.2964 12.0025 9.24479 10.4385C9.04298 10.285 8.87259 10.0793 8.74621 9.83649C8.61983 9.59372 8.54068 9.3201 8.51463 9.03585C8.48857 8.7516 8.51627 8.46398 8.59567 8.19425C8.67507 7.92451 8.80415 7.67955 8.97337 7.47747C8.97577 7.47399 8.97845 7.4708 8.98135 7.46792L13.4578 2.27723L12.4998 1.95035L7.46859 3.66945L4.73744 10.1987L9.64693 14.392L15.4485 16.1254L18.487 12.4892ZM23.4005 8.16582L20.9238 2.23786L19.1586 3.29366L21.6383 9.22161L23.4005 8.16582Z" fill="#262626"/>
</svg>
