<svg width="23" height="23" viewBox="0 0 23 23" fill="none" xmlns="http://www.w3.org/2000/svg">
<g clip-path="url(#clip0_118_246)">
<path fill-rule="evenodd" clip-rule="evenodd" d="M13.2907 0.137995C13.1308 0.112969 12.9676 0.119676 12.8103 0.157732C12.6531 0.195789 12.5048 0.264451 12.3741 0.359797C12.2434 0.455142 12.1327 0.575305 12.0484 0.713425C11.9641 0.851544 11.9078 1.00492 11.8828 1.16478C11.8578 1.32465 11.8645 1.48788 11.9025 1.64515C11.9406 1.80242 12.0092 1.95066 12.1046 2.0814C12.1999 2.21214 12.3201 2.32282 12.4582 2.40711C12.5963 2.49141 12.7497 2.54768 12.9096 2.57271C15.1508 2.93362 17.1743 4.12466 18.5776 5.9091C19.9809 7.69353 20.6615 9.94068 20.4839 12.2039C20.3063 14.4671 19.2836 16.5806 17.6191 18.1243C15.9546 19.668 13.7701 20.5288 11.5 20.5357C9.68826 20.536 7.91823 19.9919 6.41952 18.9739C4.92082 17.956 3.76261 16.5111 3.09514 14.8268C3.03908 14.6717 2.95245 14.5294 2.84037 14.4083C2.7283 14.2873 2.59306 14.19 2.44269 14.1223C2.29232 14.0545 2.12986 14.0176 1.96496 14.0137C1.80006 14.0099 1.63607 14.0392 1.48271 14.1C1.32935 14.1607 1.18974 14.2516 1.07217 14.3673C0.954596 14.483 0.861446 14.6211 0.798243 14.7734C0.735041 14.9258 0.703072 15.0893 0.704233 15.2542C0.705394 15.4192 0.73966 15.5822 0.805 15.7336C1.79197 18.22 3.61463 20.2846 5.95938 21.5723C8.30414 22.86 11.0244 23.2903 13.6521 22.7891C16.2798 22.2878 18.6506 20.8865 20.3568 18.8261C22.0629 16.7657 22.9976 14.1751 23 11.5C22.9999 8.76016 22.0218 6.11033 20.2419 4.02742C18.462 1.9445 15.997 0.565288 13.2907 0.137995ZM10.1266 1.08592C10.1671 1.24277 10.1762 1.40607 10.1535 1.56646C10.1309 1.72686 10.0768 1.8812 9.99438 2.02067C9.91198 2.16014 9.80289 2.28199 9.67334 2.37926C9.5438 2.47652 9.39635 2.54728 9.23943 2.5875C8.82785 2.6934 8.42433 2.82845 8.03193 2.99164C7.88253 3.05377 7.72235 3.08587 7.56054 3.0861C7.39874 3.08633 7.23847 3.05469 7.08889 2.99298C6.93931 2.93127 6.80335 2.84071 6.68877 2.72646C6.57419 2.61221 6.48324 2.4765 6.42111 2.3271C6.35897 2.1777 6.32687 2.01752 6.32664 1.85572C6.32641 1.69391 6.35806 1.53364 6.41976 1.38406C6.48147 1.23448 6.57204 1.09852 6.68629 0.983945C6.80054 0.869367 6.93624 0.778415 7.08564 0.716281C7.58179 0.509281 8.096 0.336781 8.62664 0.200424C8.78338 0.160175 8.94651 0.151195 9.10672 0.173997C9.26693 0.196799 9.42108 0.250936 9.56036 0.333317C9.69965 0.415697 9.82134 0.524708 9.91849 0.654123C10.0156 0.783538 10.0863 0.92918 10.1266 1.08592ZM5.2325 3.11157C5.45979 3.34606 5.58469 3.66119 5.57976 3.98772C5.57483 4.31425 5.44048 4.62547 5.20621 4.853C4.59535 5.44837 4.0701 6.12567 3.6455 6.8655C3.5674 7.01 3.4612 7.13744 3.33313 7.2403C3.20507 7.34316 3.05773 7.41938 2.89978 7.46448C2.74182 7.50957 2.57645 7.52262 2.41338 7.50287C2.25031 7.48312 2.09284 7.43096 1.95022 7.34947C1.8076 7.26797 1.68272 7.15878 1.58291 7.02832C1.48311 6.89785 1.4104 6.74875 1.36905 6.58978C1.32771 6.4308 1.31857 6.26517 1.34218 6.10261C1.36578 5.94006 1.42165 5.78386 1.5065 5.64321C2.04455 4.70156 2.71265 3.84044 3.49107 3.08528C3.72556 2.85799 4.0407 2.73309 4.36723 2.73802C4.69376 2.74295 5.00497 2.87731 5.2325 3.11157ZM1.50486 8.67428C1.82834 8.71989 2.12047 8.89209 2.31702 9.15303C2.51357 9.41397 2.59845 9.74228 2.553 10.0658C2.49375 10.4876 2.4641 10.913 2.46429 11.339C2.46429 11.6658 2.33447 11.9792 2.1034 12.2103C1.87233 12.4413 1.55893 12.5711 1.23214 12.5711C0.905358 12.5711 0.591958 12.4413 0.360886 12.2103C0.129815 11.9792 0 11.6658 0 11.339C0 10.7919 0.0377857 10.2514 0.113357 9.72242C0.158964 9.39894 0.331167 9.10681 0.592104 8.91026C0.853042 8.71371 1.18135 8.62883 1.50486 8.67428ZM7.39286 14.5919V8.40814C7.39301 8.12821 7.46468 7.85296 7.60108 7.60851C7.73748 7.36406 7.93408 7.15852 8.17222 7.01139C8.41036 6.86426 8.68215 6.78042 8.9618 6.76782C9.24144 6.75523 9.51967 6.8143 9.77007 6.93942L15.9538 10.0313C16.2263 10.1679 16.4555 10.3776 16.6156 10.637C16.7757 10.8963 16.8605 11.1952 16.8605 11.5C16.8605 11.8048 16.7757 12.1036 16.6156 12.363C16.4555 12.6224 16.2263 12.8321 15.9538 12.9687L9.77007 16.0606C9.51967 16.1857 9.24144 16.2448 8.9618 16.2322C8.68215 16.2196 8.41036 16.1357 8.17222 15.9886C7.93408 15.8415 7.73748 15.6359 7.60108 15.3915C7.46468 15.147 7.39301 14.8718 7.39286 14.5919Z" fill="#262626"/>
</g>
<defs>
<clipPath id="clip0_118_246">
<rect width="23" height="23" fill="white"/>
</clipPath>
</defs>
</svg>
