<svg width="22" height="22" viewBox="0 0 22 22" fill="none" xmlns="http://www.w3.org/2000/svg">
<g clip-path="url(#clip0_118_262)">
<path d="M11.0001 21.2143C13.709 21.2143 16.3071 20.1381 18.2226 18.2226C20.1382 16.307 21.2143 13.709 21.2143 11C21.2143 8.29099 20.1382 5.69295 18.2226 3.7774C16.3071 1.86185 13.709 0.785706 11.0001 0.785706C8.29106 0.785706 5.69301 1.86185 3.77746 3.7774C1.86191 5.69295 0.785767 8.29099 0.785767 11C0.785767 13.709 1.86191 16.307 3.77746 18.2226C5.69301 20.1381 8.29106 21.2143 11.0001 21.2143Z" stroke="#262626" stroke-width="1.71429" stroke-linecap="round" stroke-linejoin="round"/>
<path d="M8.64294 15.7143H13.3572" stroke="#262626" stroke-width="1.71429" stroke-linecap="round" stroke-linejoin="round"/>
<path d="M11 15.7143V10.2143H9.42859" stroke="#262626" stroke-width="1.71429" stroke-linecap="round" stroke-linejoin="round"/>
<path d="M11 6.67854C10.8958 6.67854 10.7959 6.63715 10.7222 6.56347C10.6486 6.4898 10.6072 6.38987 10.6072 6.28568C10.6072 6.18149 10.6486 6.08156 10.7222 6.00789C10.7959 5.93421 10.8958 5.89282 11 5.89282" stroke="#262626" stroke-width="1.71429" stroke-linecap="round" stroke-linejoin="round"/>
<path d="M11 6.67854C11.1042 6.67854 11.2041 6.63715 11.2778 6.56347C11.3515 6.4898 11.3929 6.38987 11.3929 6.28568C11.3929 6.18149 11.3515 6.08156 11.2778 6.00789C11.2041 5.93421 11.1042 5.89282 11 5.89282" stroke="#262626" stroke-width="1.71429" stroke-linecap="round" stroke-linejoin="round"/>
</g>
<defs>
<clipPath id="clip0_118_262">
<rect width="22" height="22" fill="white"/>
</clipPath>
</defs>
</svg>
