<svg width="30" height="30" viewBox="0 0 30 30" fill="none" xmlns="http://www.w3.org/2000/svg">
<path d="M1.07153 26.7857V3.21427C1.07153 2.64595 1.2973 2.1009 1.69916 1.69904C2.10103 1.29718 2.64607 1.07141 3.21439 1.07141H26.7858C27.3541 1.07141 27.8992 1.29718 28.301 1.69904C28.7029 2.1009 28.9287 2.64595 28.9287 3.21427V26.7857C28.9287 27.354 28.7029 27.8991 28.301 28.3009C27.8992 28.7028 27.3541 28.9286 26.7858 28.9286H20.3572V18.7714H21.8787C22.2254 18.7714 22.5578 18.6337 22.803 18.3886C23.0481 18.1434 23.1858 17.8109 23.1858 17.4643V15.8143C23.1853 15.4678 23.0474 15.1356 22.8023 14.8906C22.5573 14.6456 22.2252 14.5077 21.8787 14.5071H20.443V12.4928C20.443 10.6928 21.2572 10.6928 22.0715 10.6928H23.1215C23.294 10.6999 23.4659 10.6691 23.6251 10.6024C23.7844 10.5358 23.927 10.435 24.043 10.3071C24.1675 10.1886 24.2661 10.0455 24.3325 9.88687C24.3989 9.72826 24.4316 9.55761 24.4287 9.3857V7.79998C24.435 7.62535 24.4066 7.4512 24.3453 7.28756C24.284 7.12393 24.1909 6.97405 24.0714 6.84657C23.9518 6.71908 23.8083 6.61651 23.6489 6.54477C23.4896 6.47303 23.3176 6.43353 23.143 6.42855H20.6787C19.9596 6.40152 19.2433 6.5309 18.5791 6.80775C17.915 7.0846 17.3188 7.50232 16.8319 8.03206C16.3449 8.5618 15.9788 9.19094 15.7587 9.87601C15.5386 10.5611 15.4699 11.2858 15.5572 12V14.5071H14.1858C14.0124 14.5043 13.8401 14.536 13.679 14.6004C13.5179 14.6648 13.3713 14.7607 13.2476 14.8823C13.124 15.004 13.0258 15.149 12.9588 15.309C12.8917 15.469 12.8572 15.6408 12.8572 15.8143V17.4643C12.8572 17.6377 12.8917 17.8095 12.9588 17.9695C13.0258 18.1295 13.124 18.2746 13.2476 18.3962C13.3713 18.5179 13.5179 18.6137 13.679 18.6781C13.8401 18.7425 14.0124 18.7743 14.1858 18.7714H15.5572V28.9286H3.21439C2.64607 28.9286 2.10103 28.7028 1.69916 28.3009C1.2973 27.8991 1.07153 27.354 1.07153 26.7857Z" stroke="#262626" stroke-width="1.71429" stroke-linecap="round" stroke-linejoin="round"/>
</svg>
