<svg width="23" height="19" viewBox="0 0 23 19" fill="none" xmlns="http://www.w3.org/2000/svg">
<path d="M10.7434 18.3459C10.7037 18.5327 10.612 18.6985 10.4829 18.8171C10.3538 18.9356 10.1948 19 10.031 19C9.9691 19.0003 9.90742 18.9916 9.84737 18.9741L6.90966 18.1106C6.82788 18.0864 6.75024 18.0459 6.68015 17.9908L4.47687 16.2638C4.31483 16.1367 4.20238 15.9391 4.16425 15.7145C4.12611 15.4899 4.16542 15.2567 4.27352 15.0662C4.38163 14.8757 4.54967 14.7435 4.74069 14.6987C4.93171 14.6538 5.13005 14.7 5.29208 14.8271L7.38888 16.471L10.2036 17.2989C10.2976 17.3257 10.3862 17.3741 10.4643 17.4413C10.5424 17.5085 10.6084 17.5932 10.6586 17.6905C10.7087 17.7878 10.7421 17.8958 10.7566 18.0082C10.7712 18.1207 10.7667 18.2355 10.7434 18.3459ZM22.9248 7.93429C22.8645 8.14949 22.7686 8.34853 22.6425 8.51989C22.5165 8.69126 22.3628 8.83156 22.1904 8.9327L20.0164 10.2107L14.9599 16.1569C14.8702 16.2623 14.7587 16.3386 14.6365 16.3783C14.5142 16.4181 14.3852 16.4199 14.2622 16.3836L8.38678 14.6566C8.29743 14.6302 8.21305 14.5845 8.13799 14.5217L3.04106 10.2431L0.812072 8.9327C0.463711 8.72795 0.198771 8.36892 0.075508 7.93455C-0.0477546 7.50018 -0.0192483 7.02604 0.154759 6.61637L2.43608 1.25298C2.61022 0.843399 2.91559 0.531898 3.28503 0.386974C3.65448 0.242049 4.05775 0.275565 4.40618 0.480152L6.43136 1.66746L11.297 0.0332928C11.4289 -0.0110976 11.5689 -0.0110976 11.7009 0.0332928L16.5665 1.66746L18.5917 0.480152C18.9401 0.275565 19.3434 0.242049 19.7128 0.386974C20.0822 0.531898 20.3876 0.843399 20.5618 1.25298L22.8431 6.61637C22.9301 6.8188 22.9821 7.0395 22.9961 7.26571C23.0102 7.49192 22.9859 7.71916 22.9248 7.93429ZM18.6853 9.33099L16.1873 3.45706H13.2661L9.29655 7.99041C10.4588 8.86362 12.2811 9.10432 13.9161 7.16685C14.0438 7.01552 14.2146 6.92508 14.3956 6.91292C14.5766 6.90076 14.755 6.96776 14.8966 7.10101L18.0555 10.0768L18.6853 9.33099ZM1.46847 7.38812L3.09247 8.34337L5.37379 2.97997L3.74978 2.02473L1.46847 7.38812ZM17.008 11.2998L14.4642 8.90464C12.6703 10.6316 10.3927 10.8594 8.50521 9.44432C8.31954 9.30546 8.16278 9.11933 8.04651 8.89968C7.93024 8.68003 7.85743 8.43247 7.83346 8.17529C7.80949 7.91811 7.83497 7.65789 7.90802 7.41384C7.98107 7.1698 8.09982 6.94817 8.2555 6.76533C8.25771 6.76218 8.26017 6.75929 8.26284 6.75669L12.3812 2.06035L11.4998 1.7646L6.8711 3.31998L4.35844 9.22737L8.87517 13.0214L14.2126 14.5897L17.008 11.2998ZM21.5285 7.38812L19.2499 2.02473L17.6259 2.97997L19.9072 8.34337L21.5285 7.38812Z" fill="white"/>
</svg>
