<svg width="9" height="13" viewBox="0 0 9 13" fill="none" xmlns="http://www.w3.org/2000/svg">
<path d="M4.46924 0.8125C3.28449 0.813898 2.14865 1.28516 1.3109 2.12291C0.473153 2.96066 0.00189073 4.09649 0.000493036 5.28125C-0.000925952 6.24943 0.315329 7.19135 0.900743 7.9625C0.900743 7.9625 1.02262 8.12297 1.04252 8.14612L4.46924 12.1875L7.89759 8.14409C7.91546 8.12256 8.03774 7.9625 8.03774 7.9625L8.03815 7.96128C8.62327 7.19047 8.93938 6.24899 8.93799 5.28125C8.93659 4.09649 8.46533 2.96066 7.62758 2.12291C6.78983 1.28516 5.654 0.813898 4.46924 0.8125ZM5.93174 7.3125L4.46924 6.38178L3.00674 7.3125L3.25049 5.65744L2.03174 4.53903L3.73799 4.33306L4.46924 2.84375L5.24599 4.33347L6.90674 4.53903L5.68799 5.65744L5.93174 7.3125Z" fill="#009495"/>
</svg>
