<svg width="18" height="16" viewBox="0 0 18 16" fill="none" xmlns="http://www.w3.org/2000/svg">
<path d="M16.6154 0H1.38462C1.01739 0 0.66521 0.153246 0.405544 0.426026C0.145879 0.698807 0 1.06878 0 1.45455V14.5455C0 14.9312 0.145879 15.3012 0.405544 15.574C0.66521 15.8468 1.01739 16 1.38462 16H16.6154C16.9826 16 17.3348 15.8468 17.5945 15.574C17.8541 15.3012 18 14.9312 18 14.5455V1.45455C18 1.06878 17.8541 0.698807 17.5945 0.426026C17.3348 0.153246 16.9826 0 16.6154 0ZM16.6154 1.45455V10.7955L14.3593 8.42636C14.2307 8.29126 14.0781 8.18409 13.9101 8.11097C13.7421 8.03785 13.562 8.00022 13.3801 8.00022C13.1983 8.00022 13.0182 8.03785 12.8502 8.11097C12.6822 8.18409 12.5295 8.29126 12.401 8.42636L10.6702 10.2445L6.8625 6.24455C6.60286 5.97197 6.25082 5.81886 5.88375 5.81886C5.51668 5.81886 5.16464 5.97197 4.905 6.24455L1.38462 9.94273V1.45455H16.6154ZM1.38462 12L5.88462 7.27273L12.8077 14.5455H1.38462V12ZM16.6154 14.5455H14.7661L11.6507 11.2727L13.3814 9.45455L16.6154 12.8527V14.5455ZM10.3846 5.45455C10.3846 5.23878 10.4455 5.02787 10.5596 4.84847C10.6737 4.66907 10.8359 4.52925 11.0257 4.44668C11.2154 4.36411 11.4242 4.3425 11.6257 4.3846C11.8271 4.42669 12.0121 4.53059 12.1574 4.68316C12.3026 4.83572 12.4015 5.0301 12.4416 5.24172C12.4817 5.45334 12.4611 5.67268 12.3825 5.87202C12.3039 6.07136 12.1708 6.24173 12 6.3616C11.8292 6.48147 11.6285 6.54545 11.4231 6.54545C11.1477 6.54545 10.8835 6.43052 10.6888 6.22593C10.494 6.02135 10.3846 5.74387 10.3846 5.45455Z" fill="white"/>
</svg>
