<svg width="30" height="30" viewBox="0 0 30 30" fill="none" xmlns="http://www.w3.org/2000/svg">
<path d="M22.1422 7.80861C22.0001 7.80861 21.8638 7.75217 21.7634 7.6517C21.6629 7.55124 21.6064 7.41498 21.6064 7.2729C21.6064 7.13082 21.6629 6.99456 21.7634 6.89409C21.8638 6.79362 22.0001 6.73718 22.1422 6.73718" stroke="#262626" stroke-width="1.71429" stroke-linecap="round" stroke-linejoin="round"/>
<path d="M22.1421 7.80861C22.2842 7.80861 22.4204 7.75217 22.5209 7.6517C22.6214 7.55124 22.6778 7.41498 22.6778 7.2729C22.6778 7.13082 22.6214 6.99456 22.5209 6.89409C22.4204 6.79362 22.2842 6.73718 22.1421 6.73718" stroke="#262626" stroke-width="1.71429" stroke-linecap="round" stroke-linejoin="round"/>
<path d="M1.83857 7.35219C1.83857 5.8899 2.41946 4.48751 3.45346 3.45351C4.48745 2.41952 5.88985 1.83862 7.35214 1.83862H22.0564C22.7805 1.83862 23.4974 1.98124 24.1664 2.25832C24.8353 2.5354 25.4431 2.94153 25.9551 3.45351C26.4671 3.96549 26.8732 4.5733 27.1503 5.24224C27.4274 5.91118 27.57 6.62814 27.57 7.35219V22.0565C27.57 23.5188 26.9891 24.9212 25.9551 25.9552C24.9211 26.9892 23.5187 27.5701 22.0564 27.5701H7.35C5.88771 27.5701 4.48531 26.9892 3.45131 25.9552C2.41732 24.9212 1.83643 23.5188 1.83643 22.0565V7.35005L1.83857 7.35219Z" stroke="#262626" stroke-width="1.71429" stroke-linecap="round" stroke-linejoin="round"/>
<path d="M9.23999 14.7043C9.23999 15.4219 9.38133 16.1324 9.65593 16.7954C9.93054 17.4583 10.333 18.0607 10.8404 18.5681C11.3478 19.0755 11.9502 19.478 12.6132 19.7526C13.2761 20.0272 13.9867 20.1686 14.7043 20.1686C15.4219 20.1686 16.1324 20.0272 16.7954 19.7526C17.4583 19.478 18.0607 19.0755 18.5681 18.5681C19.0755 18.0607 19.478 17.4583 19.7526 16.7954C20.0272 16.1324 20.1686 15.4219 20.1686 14.7043C20.1686 13.2551 19.5929 11.8652 18.5681 10.8404C17.5434 9.81569 16.1535 9.23999 14.7043 9.23999C13.2551 9.23999 11.8652 9.81569 10.8404 10.8404C9.81569 11.8652 9.23999 13.2551 9.23999 14.7043Z" stroke="#262626" stroke-width="1.71429" stroke-linecap="round" stroke-linejoin="round"/>
</svg>
