<svg width="30" height="30" viewBox="0 0 30 30" fill="none" xmlns="http://www.w3.org/2000/svg">
<path d="M7.65848 3.78641C7.66429 4.52738 7.37823 5.24086 6.86214 5.77258C6.34606 6.3043 5.64144 6.61153 4.90062 6.62784C4.16136 6.60098 3.46068 6.29111 2.94341 5.76228C2.42615 5.23345 2.13184 4.52609 2.12134 3.78641C2.15329 3.06556 2.45828 2.38387 2.97443 1.87966C3.49058 1.37544 4.17923 1.08648 4.90062 1.07141C5.61989 1.08677 6.30609 1.37646 6.81878 1.88117C7.33146 2.38589 7.63186 3.06747 7.65848 3.78641ZM2.41919 11.6764C2.41919 10.0436 3.45848 10.2986 4.90062 10.2986C6.34277 10.2986 7.36062 10.0436 7.36062 11.6764V27.585C7.36062 29.2393 6.32134 28.9007 4.90062 28.9007C3.47991 28.9007 2.41919 29.2393 2.41919 27.585V11.6764Z" stroke="#262626" stroke-width="1.71429" stroke-linecap="round" stroke-linejoin="round"/>
<path d="M11.6464 11.6786C11.6464 10.7657 11.985 10.425 12.5143 10.32C13.0457 10.2128 14.8693 10.32 15.5057 10.32C16.1421 10.32 16.3971 11.3593 16.3757 12.1436C16.92 11.4131 17.6426 10.8345 18.4743 10.4631C19.3061 10.0917 20.2192 9.93987 21.1264 10.0221C22.0173 9.96773 22.9097 10.1013 23.7456 10.4143C24.5815 10.7272 25.3422 11.2124 25.9784 11.8385C26.6145 12.4645 27.1119 13.2174 27.4381 14.0482C27.7644 14.8789 27.9123 15.7691 27.8721 16.6607V27.5207C27.8721 29.175 26.8543 28.8364 25.41 28.8364C23.9679 28.8364 22.95 29.175 22.95 27.5207V19.0371C22.9874 18.6006 22.9303 18.1611 22.7828 17.7485C22.6352 17.336 22.4006 16.96 22.0949 16.6461C21.7892 16.3322 21.4195 16.0879 21.0109 15.9295C20.6024 15.7712 20.1645 15.7027 19.7271 15.7286C19.2914 15.7171 18.8583 15.7983 18.4564 15.967C18.0545 16.1356 17.693 16.3878 17.396 16.7067C17.0989 17.0256 16.8731 17.4041 16.7334 17.8169C16.5937 18.2298 16.5433 18.6676 16.5857 19.1014V27.585C16.5857 29.2393 15.5464 28.9007 14.1043 28.9007C12.6621 28.9007 11.6443 29.2393 11.6443 27.585V11.6764L11.6464 11.6786Z" stroke="#262626" stroke-width="1.71429" stroke-linecap="round" stroke-linejoin="round"/>
</svg>
