<svg width="35" height="13" viewBox="0 0 35 13" fill="none" xmlns="http://www.w3.org/2000/svg">
<rect x="2" y="1" width="31" height="11" fill="white"/>
<path d="M0.27059 1.30087C0.800204 0.563344 1.63062 -0.0919719 2.66671 0.0160729C12.5186 0.00198009 22.3704 0.018422 32.2248 0.00902678C33.0347 -0.0473444 33.8908 0.154655 34.4024 0.774738C35.1068 1.33375 34.9757 2.23099 34.9989 2.99435C34.9886 5.58038 35.0117 8.16876 34.9911 10.7548C35.0734 12.0725 33.5823 13.0754 32.2248 12.9955C22.3755 12.9955 12.5263 13.0026 2.67699 12.9908C1.60491 13.0167 0.73336 12.3167 0.203747 11.5275C0.0854834 10.9591 -0.0199248 10.386 0.00321362 9.80587C0.0366358 7.23393 -0.0276364 4.662 0.0366371 2.09241C0.124049 1.82935 0.198603 1.56628 0.27059 1.30087ZM14.0251 10.4612C15.4006 10.4612 16.7786 10.4941 18.1515 10.433C18.1618 10.0431 18.1746 9.65555 18.1849 9.268C17.2619 9.27035 16.3415 9.27504 15.4186 9.2492C15.4314 6.97557 15.4314 4.70193 15.416 2.42829C14.9558 2.42829 14.4982 2.42829 14.038 2.42829C14.0174 5.10592 14.0354 7.78355 14.0251 10.4612ZM18.9639 10.4659C19.4164 10.4659 19.8689 10.4659 20.3239 10.4682C20.5193 8.14527 20.4165 5.81761 20.4499 3.48995C20.4242 3.13763 20.5219 2.74068 20.2597 2.44473C19.8303 2.42594 19.4035 2.41655 18.9768 2.41655C18.9459 5.09888 18.969 7.78355 18.9639 10.4659ZM21.198 2.44473C21.4526 3.83287 21.8562 5.19283 22.1364 6.57627C22.4938 7.86341 22.774 9.16934 23.1237 10.4588C23.6944 10.4612 24.2652 10.4588 24.8359 10.4541C25.2164 8.763 25.7178 7.0977 26.1111 5.41127C26.3322 4.42007 26.6279 3.44062 26.7898 2.43769C26.3219 2.43299 25.854 2.42829 25.3861 2.42359C24.9105 4.15936 24.6508 5.93505 24.2138 7.68021C24.1366 8.02783 24.0646 8.38015 23.9772 8.72777C23.913 8.36606 23.859 8.00434 23.8076 7.64263C23.4399 5.89512 23.1134 4.13822 22.6172 2.41655C22.1442 2.42594 21.6711 2.43534 21.198 2.44473ZM27.6665 2.42594C27.4557 5.09653 27.5251 7.78825 27.6485 10.4612C29.024 10.4682 30.402 10.48 31.7775 10.4447C31.8109 10.0501 31.8443 9.65555 31.8803 9.2633C30.9188 9.2633 29.9572 9.2633 28.9957 9.2586C28.9957 8.47645 28.9957 7.6943 29.006 6.91215C29.8621 6.9145 30.7182 6.91215 31.5744 6.91215C31.5769 6.50111 31.5795 6.09477 31.5847 5.68608C30.726 5.68843 29.8673 5.68373 29.006 5.68138C28.9957 5.0472 28.9931 4.41303 28.9906 3.7812C29.8673 3.77415 30.7465 3.7718 31.6232 3.77885C31.6386 3.33023 31.6515 2.88161 31.6592 2.43533C30.3275 2.42829 28.9983 2.43299 27.6665 2.42594ZM3.25031 6.53164C3.22717 8.04192 4.39952 9.49818 5.98836 9.92331C6.91904 10.0924 7.878 10.0102 8.80354 9.85754C9.74708 9.3596 10.4927 8.61973 10.994 7.73658C11.0608 6.93329 11.1662 6.11121 10.9683 5.31496C10.4232 3.83052 8.7367 2.76182 7.01674 2.87457C4.9677 2.8957 3.12948 4.65025 3.25031 6.53164Z" fill="#FF0100"/>
</svg>
