<svg width="20" height="20" viewBox="0 0 20 20" fill="none" xmlns="http://www.w3.org/2000/svg">
<g clip-path="url(#clip0_118_37)">
<path fill-rule="evenodd" clip-rule="evenodd" d="M11.5571 0.120009C11.4181 0.0982472 11.2762 0.104079 11.1394 0.137172C11.0027 0.170265 10.8738 0.22997 10.7601 0.31288C10.6464 0.395789 10.5502 0.500279 10.4769 0.620383C10.4035 0.740487 10.3546 0.873853 10.3329 1.01287C10.3111 1.15188 10.3169 1.29382 10.35 1.43058C10.3831 1.56734 10.4428 1.69624 10.5257 1.80993C10.6086 1.92361 10.7131 2.01985 10.8332 2.09316C10.9533 2.16646 11.0867 2.21539 11.2257 2.23715C13.1747 2.55098 14.9341 3.58668 16.1544 5.13836C17.3747 6.69004 17.9665 8.64409 17.8121 10.6121C17.6576 12.5801 16.7683 14.4179 15.3209 15.7602C13.8735 17.1026 11.974 17.8512 10 17.8572C8.42457 17.8574 6.88542 17.3843 5.58219 16.4991C4.27897 15.6139 3.27183 14.3575 2.69143 12.8929C2.64268 12.758 2.56735 12.6342 2.46989 12.529C2.37243 12.4238 2.25484 12.3392 2.12408 12.2802C1.99332 12.2213 1.85205 12.1892 1.70866 12.1859C1.56527 12.1825 1.42267 12.208 1.28931 12.2608C1.15596 12.3136 1.03456 12.3927 0.932322 12.4933C0.830083 12.5939 0.749083 12.714 0.694125 12.8465C0.639166 12.979 0.611367 13.1211 0.612376 13.2646C0.613386 13.408 0.643182 13.5497 0.7 13.6814C1.55824 15.8435 3.14316 17.6388 5.18207 18.7586C7.22099 19.8783 9.58642 20.2524 11.8714 19.8166C14.1563 19.3807 16.218 18.1622 17.7015 16.3705C19.1851 14.5789 19.9979 12.3262 20 10C19.9999 7.61754 19.1494 5.31335 17.6017 3.50212C16.0539 1.69089 13.9105 0.491568 11.5571 0.120009ZM8.80571 0.944295C8.84093 1.08068 8.8489 1.22268 8.82917 1.36215C8.80945 1.50163 8.76241 1.63584 8.69076 1.75712C8.61911 1.8784 8.52425 1.98436 8.4116 2.06893C8.29896 2.15351 8.17074 2.21504 8.03429 2.25001C7.67639 2.3421 7.32551 2.45954 6.98429 2.60144C6.85437 2.65547 6.71509 2.68338 6.57438 2.68358C6.43368 2.68378 6.29432 2.65627 6.16425 2.60261C6.03418 2.54895 5.91596 2.4702 5.81632 2.37085C5.71669 2.2715 5.6376 2.1535 5.58357 2.02358C5.52954 1.89367 5.50163 1.75438 5.50143 1.61368C5.50123 1.47298 5.52874 1.33361 5.5824 1.20355C5.63606 1.07348 5.71481 0.955251 5.81416 0.855618C5.91351 0.755985 6.03151 0.676896 6.16143 0.622866C6.59286 0.442866 7.04 0.292866 7.50143 0.174295C7.63772 0.139296 7.77957 0.131487 7.91889 0.151315C8.0582 0.171143 8.19224 0.218219 8.31336 0.289854C8.43447 0.361489 8.54029 0.456281 8.62477 0.568816C8.70925 0.681351 8.77074 0.807996 8.80571 0.944295ZM4.55 2.70572C4.74764 2.90963 4.85625 3.18366 4.85196 3.4676C4.84768 3.75154 4.73085 4.02216 4.52714 4.22001C3.99596 4.73773 3.53922 5.32668 3.17 5.97001C3.10209 6.09567 3.00974 6.20648 2.89838 6.29593C2.78701 6.38537 2.65889 6.45165 2.52154 6.49086C2.3842 6.53007 2.24039 6.54142 2.09859 6.52425C1.95679 6.50708 1.81986 6.46172 1.69584 6.39086C1.57183 6.31999 1.46323 6.22504 1.37645 6.11159C1.28966 5.99815 1.22643 5.86849 1.19048 5.73025C1.15453 5.59202 1.14659 5.44799 1.16711 5.30663C1.18764 5.16528 1.23622 5.02946 1.31 4.90715C1.77787 4.08832 2.35882 3.33953 3.03571 2.68287C3.23962 2.48522 3.51365 2.37662 3.79759 2.3809C4.08153 2.38519 4.35215 2.50202 4.55 2.70572ZM1.30857 7.54287C1.58986 7.58252 1.84389 7.73227 2.0148 7.95917C2.18571 8.18607 2.25952 8.47156 2.22 8.75287C2.16847 9.11966 2.1427 9.48961 2.14286 9.86001C2.14286 10.1442 2.02997 10.4167 1.82904 10.6176C1.62811 10.8186 1.35559 10.9314 1.07143 10.9314C0.787268 10.9314 0.514746 10.8186 0.313814 10.6176C0.112882 10.4167 0 10.1442 0 9.86001C0 9.38429 0.0328571 8.9143 0.0985714 8.4543C0.13823 8.17301 0.287971 7.91898 0.514873 7.74807C0.741775 7.57715 1.02726 7.50335 1.30857 7.54287ZM6.42857 12.6886V7.31144C6.4287 7.06802 6.49103 6.82868 6.60963 6.61611C6.72824 6.40355 6.8992 6.22481 7.10628 6.09687C7.31336 5.96893 7.5497 5.89603 7.79287 5.88508C8.03604 5.87412 8.27797 5.92549 8.49571 6.03429L13.8729 8.72287C14.1098 8.84164 14.3091 9.02399 14.4483 9.24954C14.5876 9.47509 14.6613 9.73494 14.6613 10C14.6613 10.2651 14.5876 10.5249 14.4483 10.7505C14.3091 10.976 14.1098 11.1584 13.8729 11.2772L8.49571 13.9657C8.27797 14.0745 8.03604 14.1259 7.79287 14.1149C7.5497 14.104 7.31336 14.0311 7.10628 13.9031C6.8992 13.7752 6.72824 13.5965 6.60963 13.3839C6.49103 13.1713 6.4287 12.932 6.42857 12.6886Z" fill="white"/>
</g>
<defs>
<clipPath id="clip0_118_37">
<rect width="20" height="20" fill="white"/>
</clipPath>
</defs>
</svg>
