<svg width="13" height="15" viewBox="0 0 13 15" fill="none" xmlns="http://www.w3.org/2000/svg">
<path d="M6.50001 0.0628662C4.95071 0.064694 3.46539 0.68096 2.36987 1.77648C1.27435 2.872 0.658084 4.35732 0.656256 5.90662C0.654401 7.1727 1.06796 8.40444 1.83351 9.41287C1.83351 9.41287 1.99288 9.62271 2.01891 9.65299L6.50001 14.9379L10.9832 9.65034C11.0066 9.62218 11.1665 9.41287 11.1665 9.41287L11.167 9.41127C11.9322 8.40329 12.3456 7.17212 12.3438 5.90662C12.3419 4.35732 11.7257 2.872 10.6301 1.77648C9.53462 0.68096 8.0493 0.064694 6.50001 0.0628662ZM8.41251 8.56287L6.50001 7.34577L4.58751 8.56287L4.90626 6.39855L3.31251 4.93602L5.54376 4.66668L6.50001 2.71912L7.51576 4.66721L9.6875 4.93602L8.09376 6.39855L8.41251 8.56287Z" fill="#95BEBE"/>
</svg>
