<svg width="30" height="30" viewBox="0 0 30 30" fill="none" xmlns="http://www.w3.org/2000/svg">
<path d="M8.57154 20.1429C7.04141 21.3447 5.28515 22.2265 3.40726 22.7357C3.20042 22.8108 3.02171 22.9477 2.89542 23.1279C2.76912 23.3081 2.70137 23.5228 2.70137 23.7429C2.70137 23.9629 2.76912 24.1776 2.89542 24.3578C3.02171 24.538 3.20042 24.6749 3.40726 24.75C18.2358 30.8357 27.6644 21.4286 26.2287 10.9929L28.6287 6.02142H25.843C22.3715 1.75714 13.1573 1.97142 14.6787 11.0571C14.6787 11.0571 9.75012 11.9357 3.45012 5.74285C3.30438 5.59897 3.12047 5.49988 2.92016 5.45729C2.71985 5.41471 2.51153 5.43042 2.31987 5.50257C2.12821 5.57473 1.96125 5.7003 1.83875 5.86441C1.71625 6.02852 1.64335 6.2243 1.62869 6.42857C0.962541 9.16681 1.29591 12.0529 2.56876 14.5672C3.84162 17.0815 5.97032 19.0587 8.57154 20.1429Z" stroke="#262626" stroke-width="1.71429" stroke-linecap="round" stroke-linejoin="round"/>
</svg>
