<svg width="30" height="30" viewBox="0 0 30 30" fill="none" xmlns="http://www.w3.org/2000/svg">
<g clip-path="url(#clip0_118_383)">
<path fill-rule="evenodd" clip-rule="evenodd" d="M0 3.21429C0 2.3618 0.338647 1.54424 0.941442 0.941442C1.54424 0.338647 2.3618 0 3.21429 0L26.7857 0C27.6382 0 28.4558 0.338647 29.0586 0.941442C29.6614 1.54424 30 2.3618 30 3.21429V26.7857C30 27.6382 29.6614 28.4558 29.0586 29.0586C28.4558 29.6614 27.6382 30 26.7857 30H3.21429C2.3618 30 1.54424 29.6614 0.941442 29.0586C0.338647 28.4558 0 27.6382 0 26.7857L0 3.21429ZM10.6157 9.95571V20.3443C10.6168 20.5181 10.6638 20.6885 10.7519 20.8382C10.8401 20.988 10.9663 21.1118 11.1177 21.1971C11.2691 21.2823 11.4404 21.3261 11.6141 21.3238C11.7879 21.3216 11.958 21.2734 12.1071 21.1843L21 15.9921C21.15 15.9057 21.2745 15.7812 21.3611 15.6313C21.4477 15.4814 21.4933 15.3113 21.4933 15.1382C21.4933 14.9651 21.4477 14.795 21.3611 14.6451C21.2745 14.4952 21.15 14.3708 21 14.2843L12.1071 9.11571C11.958 9.02656 11.7879 8.97841 11.6141 8.97617C11.4404 8.97393 11.2691 9.01766 11.1177 9.10294C10.9663 9.18822 10.8401 9.31202 10.7519 9.46178C10.6638 9.61154 10.6168 9.78194 10.6157 9.95571Z" fill="#262626"/>
</g>
<defs>
<clipPath id="clip0_118_383">
<rect width="30" height="30" fill="white"/>
</clipPath>
</defs>
</svg>
